<svg id="Layer_1" enable-background="new 0 0 512 512" viewBox="0 0 512 512"
    xmlns="http://www.w3.org/2000/svg">
    <g>
        <path d="m112.13 350.12 33.23 16.17 16.28 33.34-49.39 49.63-16.41-33.46-33.22-16.17z"
            fill="#57addd" />
        <path
            d="m112.25 449.26 49.39-49.63-16.28-33.34-33.23-16.17-13.28 13.28 34.01 15.42 9.34 20.87-36.41 36.4z"
            fill="#399dc9" />
        <path d="m379.86 75.15 69.52-12.41-12.11 69.82z" fill="#57addd" />
        <path d="m431.18 65.99-8.94 51.53 15.03 15.04 12.11-69.82z" fill="#399dc9" />
        <path
            d="m380.61 149.74c-32.18-32.18-84.38-32.18-116.56 0l-12.55 12.56-12.56-12.56c-16.09-16.09-37.18-24.14-58.28-24.14-21.09 0-42.18 8.05-58.28 24.14-32.18 32.18-32.18 84.38 0 116.56l12.56 12.56 116.56 116.56 116.56-116.56 12.55-12.56c16.1-16.09 24.14-37.19 24.14-58.28s-8.05-42.19-24.14-58.28z"
            fill="#ee596b" />
        <path
            d="m380.61 149.74c-23.36-23.36-57.26-29.75-86.4-19.2 11.01 3.99 21.34 10.37 30.16 19.2 16.1 16.09 24.14 37.19 24.14 58.28s-8.04 42.19-24.14 58.28l-12.55 12.56-88.45 88.45 28.12 28.12 116.56-116.56 12.55-12.56c16.1-16.09 24.14-37.19 24.14-58.28 0-21.1-8.04-42.2-24.13-58.29z"
            fill="#ed3a4f" />
        <g >
            <path 
                d="m180.65 149.86c-15.53 0-30.14 6.05-41.13 17.03-10.97 10.97-17.01 25.58-17.01 41.13 0 3.65 2.96 6.62 6.62 6.62s6.62-2.96 6.62-6.62c0-12.02 4.67-23.3 13.13-31.77 8.49-8.48 19.77-13.16 31.77-13.16 3.65 0 6.62-2.96 6.62-6.62s-2.97-6.61-6.62-6.61z"
                fill="#fff" />
            <path
                d="m454.05 58.05c-1.53-1.52-3.71-2.2-5.83-1.82l-69.52 12.4c-2.43.43-4.41 2.18-5.15 4.53s-.11 4.92 1.63 6.66l23.76 23.76-29.15 29.13c-34.39-21.68-80.5-17.59-110.44 12.35l-7.87 7.88-7.88-7.88c-16.81-16.81-39.17-26.07-62.96-26.07-23.78 0-46.14 9.26-62.96 26.07-34.72 34.72-34.72 91.2 0 125.92l56.84 56.84-30.49 30.47-29.02-14.12c-2.54-1.24-5.58-.72-7.57 1.27l-49.51 49.51c-1.51 1.51-2.2 3.66-1.85 5.77s1.71 3.92 3.63 4.85l31.18 15.17 15.4 31.42c.94 1.92 2.75 3.27 4.86 3.62.36.06.72.09 1.08.09 1.75 0 3.44-.69 4.69-1.95l49.4-49.63c1.99-2 2.49-5.04 1.26-7.57l-14.2-29.08 30.5-30.48 62.93 62.93c1.29 1.29 2.98 1.94 4.68 1.94s3.39-.65 4.68-1.94l116.56-116.56 12.55-12.56c16.82-16.81 26.08-39.17 26.08-62.96s-9.26-46.16-26.08-62.96c-1.53-1.53-3.12-2.97-4.74-4.37l27.76-27.74 24.29 24.29c1.26 1.26 2.95 1.94 4.68 1.94.67 0 1.34-.1 2-.31 2.35-.75 4.1-2.74 4.52-5.18l12.11-69.82c.37-2.12-.32-4.29-1.85-5.81zm-340.58 300.08 20.66 10.05-39.63 39.61-20.65-10.05zm40.16 40.17-39.53 39.72-10.23-20.88 39.62-39.6zm244.5-190.28c0 20.26-7.88 39.3-22.2 53.6l-12.55 12.56-111.89 111.89-58.25-58.25 60.73-60.68c3.74 5.49 5.92 12.11 5.92 19.23 0 3.65 2.96 6.62 6.62 6.62s6.62-2.96 6.62-6.62c0-26.19-21.31-47.5-47.5-47.5-3.65 0-6.62 2.96-6.62 6.62s2.96 6.62 6.62 6.62c7 0 13.51 2.11 18.94 5.73l-60.68 60.64-56.84-56.84c-29.56-29.56-29.56-77.65 0-107.21 14.32-14.32 33.36-22.2 53.6-22.2 20.25 0 39.29 7.88 53.6 22.2l12.56 12.56c1.24 1.24 2.92 1.94 4.68 1.94s3.44-.7 4.68-1.94l12.55-12.56c29.56-29.56 77.65-29.56 107.21 0 14.31 14.3 22.2 33.33 22.2 53.59zm34.81-89.16-39.44-39.43 47.75-8.52z" />
        </g>
    </g>
</svg>